{
	"asset":{
		"extensions":{
			"ASOBO_normal_map_convention":{
				"tangent_space_convention":"DirectX"
			}
		},
		"generator":"Khronos glTF Blender I/O v3.5.30 and Asobo Studio MSFS Blender I/O v1.3.0",
		"version":"2.0"
	},
	"extensionsUsed":[
		"ASOBO_normal_map_convention"
	],
	"scene":0,
	"scenes":[
		{
			"name":"Scene",
			"nodes":[
				0,
				1,
				2,
				3,
				4,
				5,
				6,
				7,
				8,
				9
			]
		}
	],
	"nodes":[
		{
			"name":"Empty",
			"translation":[
				-6.363009929656982,
				22.88721466064453,
				-0.9945888519287109
			]
		},
		{
			"mesh":0,
			"name":"light",
			"rotation":[
				-0.5377975106239319,
				0.06524121016263962,
				-0.8388065099716187,
				0.05404776334762573
			],
			"translation":[
				-0.002797946333885193,
				23.189912796020508,
				0.004290580749511719
			]
		},
		{
			"mesh":1,
			"name":"pole"
		},
		{
			"mesh":2,
			"name":"top",
			"translation":[
				0,
				-0.867211639881134,
				0
			]
		},
		{
			"mesh":3,
			"name":"light.001",
			"rotation":[
				-0.5377975106239319,
				0.06524121016263962,
				-0.8388065099716187,
				0.05404776334762573
			],
			"translation":[
				-0.002797946333885193,
				23.189912796020508,
				-25.647789001464844
			]
		},
		{
			"mesh":4,
			"name":"pole.001",
			"translation":[
				0,
				0,
				-25.65207862854004
			]
		},
		{
			"mesh":5,
			"name":"top.001",
			"translation":[
				0,
				-0.867211639881134,
				-25.65207862854004
			]
		},
		{
			"mesh":6,
			"name":"light.002",
			"rotation":[
				-0.5377975106239319,
				0.06524121016263962,
				-0.8388065099716187,
				0.05404776334762573
			],
			"translation":[
				-0.002797946333885193,
				23.189912796020508,
				-51.368465423583984
			]
		},
		{
			"mesh":7,
			"name":"pole.002",
			"translation":[
				0,
				0,
				-51.37275695800781
			]
		},
		{
			"mesh":8,
			"name":"top.002",
			"translation":[
				0,
				-0.867211639881134,
				-51.37275695800781
			]
		}
	],
	"animations":[
		{
			"channels":[
				{
					"sampler":0,
					"target":{
						"node":0,
						"path":"translation"
					}
				}
			],
			"name":"EmptyAction",
			"samplers":[
				{
					"input":30,
					"interpolation":"STEP",
					"output":31
				}
			]
		}
	],
	"materials":[
		{
			"doubleSided":true,
			"emissiveFactor":[
				1,
				1,
				1
			],
			"emissiveTexture":{
				"index":0
			},
			"name":"m2mat",
			"pbrMetallicRoughness":{
				"baseColorTexture":{
					"index":1
				},
				"metallicFactor":0,
				"roughnessFactor":0.5
			}
		},
		{
			"doubleSided":true,
			"name":"m1mat",
			"pbrMetallicRoughness":{
				"baseColorFactor":[
					0.9215689897537231,
					0.9215689897537231,
					0.9215689897537231,
					1
				],
				"metallicFactor":0,
				"roughnessFactor":0.5
			}
		}
	],
	"meshes":[
		{
			"name":"meshId2_name",
			"primitives":[
				{
					"attributes":{
						"POSITION":0,
						"TEXCOORD_0":1,
						"NORMAL":2
					},
					"indices":3,
					"material":0
				}
			]
		},
		{
			"name":"meshId1_name",
			"primitives":[
				{
					"attributes":{
						"POSITION":4,
						"TEXCOORD_0":5,
						"NORMAL":6
					},
					"indices":7,
					"material":1
				}
			]
		},
		{
			"name":"Circle",
			"primitives":[
				{
					"attributes":{
						"POSITION":8,
						"TEXCOORD_0":9,
						"NORMAL":10
					},
					"indices":11
				}
			]
		},
		{
			"name":"meshId2_name.003",
			"primitives":[
				{
					"attributes":{
						"POSITION":12,
						"TEXCOORD_0":13,
						"NORMAL":14
					},
					"indices":3,
					"material":0
				}
			]
		},
		{
			"name":"meshId1_name.001",
			"primitives":[
				{
					"attributes":{
						"POSITION":15,
						"TEXCOORD_0":16,
						"NORMAL":17
					},
					"indices":7,
					"material":1
				}
			]
		},
		{
			"name":"Circle.001",
			"primitives":[
				{
					"attributes":{
						"POSITION":18,
						"TEXCOORD_0":19,
						"NORMAL":20
					},
					"indices":11
				}
			]
		},
		{
			"name":"meshId2_name.004",
			"primitives":[
				{
					"attributes":{
						"POSITION":21,
						"TEXCOORD_0":22,
						"NORMAL":23
					},
					"indices":3,
					"material":0
				}
			]
		},
		{
			"name":"meshId1_name.002",
			"primitives":[
				{
					"attributes":{
						"POSITION":24,
						"TEXCOORD_0":25,
						"NORMAL":26
					},
					"indices":7,
					"material":1
				}
			]
		},
		{
			"name":"Circle.002",
			"primitives":[
				{
					"attributes":{
						"POSITION":27,
						"TEXCOORD_0":28,
						"NORMAL":29
					},
					"indices":11
				}
			]
		}
	],
	"textures":[
		{
			"sampler":0,
			"source":0
		},
		{
			"sampler":0,
			"source":1
		}
	],
	"images":[
		{
			"mimeType":"image/png",
			"name":"gh_structure3_lm",
			"uri":"gh_structure3_lm.png"
		},
		{
			"mimeType":"image/png",
			"name":"gh_structure3",
			"uri":"gh_structure3.png"
		}
	],
	"accessors":[
		{
			"bufferView":0,
			"componentType":5126,
			"count":135,
			"max":[
				0.5484809875488281,
				0.09532184898853302,
				0.9565329551696777
			],
			"min":[
				-0.4875660836696625,
				-0.12450692057609558,
				-0.9291819930076599
			],
			"type":"VEC3"
		},
		{
			"bufferView":1,
			"componentType":5126,
			"count":135,
			"type":"VEC2"
		},
		{
			"bufferView":2,
			"componentType":5126,
			"count":135,
			"type":"VEC3"
		},
		{
			"bufferView":3,
			"componentType":5123,
			"count":144,
			"type":"SCALAR"
		},
		{
			"bufferView":4,
			"componentType":5126,
			"count":12,
			"max":[
				0.3198833465576172,
				23.007400512695312,
				0.28210318088531494
			],
			"min":[
				-0.3148212432861328,
				-0.03553000092506409,
				-0.2881668210029602
			],
			"type":"VEC3"
		},
		{
			"bufferView":5,
			"componentType":5126,
			"count":12,
			"type":"VEC2"
		},
		{
			"bufferView":6,
			"componentType":5126,
			"count":12,
			"type":"VEC3"
		},
		{
			"bufferView":7,
			"componentType":5123,
			"count":36,
			"type":"SCALAR"
		},
		{
			"bufferView":8,
			"componentType":5126,
			"count":120,
			"max":[
				0.9970277547836304,
				23.946805953979492,
				0.3535112738609314
			],
			"min":[
				-1.0029722452163696,
				23.235198974609375,
				-0.3535112738609314
			],
			"type":"VEC3"
		},
		{
			"bufferView":9,
			"componentType":5126,
			"count":120,
			"type":"VEC2"
		},
		{
			"bufferView":10,
			"componentType":5126,
			"count":120,
			"type":"VEC3"
		},
		{
			"bufferView":11,
			"componentType":5123,
			"count":216,
			"type":"SCALAR"
		},
		{
			"bufferView":12,
			"componentType":5126,
			"count":135,
			"max":[
				0.5484809875488281,
				0.09532184898853302,
				0.9565329551696777
			],
			"min":[
				-0.4875660836696625,
				-0.12450692057609558,
				-0.9291819930076599
			],
			"type":"VEC3"
		},
		{
			"bufferView":13,
			"componentType":5126,
			"count":135,
			"type":"VEC2"
		},
		{
			"bufferView":14,
			"componentType":5126,
			"count":135,
			"type":"VEC3"
		},
		{
			"bufferView":15,
			"componentType":5126,
			"count":12,
			"max":[
				0.3198833465576172,
				23.007400512695312,
				0.28210318088531494
			],
			"min":[
				-0.3148212432861328,
				-0.03553000092506409,
				-0.2881668210029602
			],
			"type":"VEC3"
		},
		{
			"bufferView":16,
			"componentType":5126,
			"count":12,
			"type":"VEC2"
		},
		{
			"bufferView":17,
			"componentType":5126,
			"count":12,
			"type":"VEC3"
		},
		{
			"bufferView":18,
			"componentType":5126,
			"count":120,
			"max":[
				0.9970277547836304,
				23.946805953979492,
				0.3535112738609314
			],
			"min":[
				-1.0029722452163696,
				23.235198974609375,
				-0.3535112738609314
			],
			"type":"VEC3"
		},
		{
			"bufferView":19,
			"componentType":5126,
			"count":120,
			"type":"VEC2"
		},
		{
			"bufferView":20,
			"componentType":5126,
			"count":120,
			"type":"VEC3"
		},
		{
			"bufferView":21,
			"componentType":5126,
			"count":135,
			"max":[
				0.5484809875488281,
				0.09532184898853302,
				0.9565329551696777
			],
			"min":[
				-0.4875660836696625,
				-0.12450692057609558,
				-0.9291819930076599
			],
			"type":"VEC3"
		},
		{
			"bufferView":22,
			"componentType":5126,
			"count":135,
			"type":"VEC2"
		},
		{
			"bufferView":23,
			"componentType":5126,
			"count":135,
			"type":"VEC3"
		},
		{
			"bufferView":24,
			"componentType":5126,
			"count":12,
			"max":[
				0.3198833465576172,
				23.007400512695312,
				0.28210318088531494
			],
			"min":[
				-0.3148212432861328,
				-0.03553000092506409,
				-0.2881668210029602
			],
			"type":"VEC3"
		},
		{
			"bufferView":25,
			"componentType":5126,
			"count":12,
			"type":"VEC2"
		},
		{
			"bufferView":26,
			"componentType":5126,
			"count":12,
			"type":"VEC3"
		},
		{
			"bufferView":27,
			"componentType":5126,
			"count":120,
			"max":[
				0.9970277547836304,
				23.946805953979492,
				0.3535112738609314
			],
			"min":[
				-1.0029722452163696,
				23.235198974609375,
				-0.3535112738609314
			],
			"type":"VEC3"
		},
		{
			"bufferView":28,
			"componentType":5126,
			"count":120,
			"type":"VEC2"
		},
		{
			"bufferView":29,
			"componentType":5126,
			"count":120,
			"type":"VEC3"
		},
		{
			"bufferView":30,
			"componentType":5126,
			"count":13,
			"max":[
				0.5
			],
			"min":[
				0
			],
			"type":"SCALAR"
		},
		{
			"bufferView":31,
			"componentType":5126,
			"count":13,
			"type":"VEC3"
		}
	],
	"bufferViews":[
		{
			"buffer":0,
			"byteLength":1620,
			"byteOffset":0,
			"target":34962
		},
		{
			"buffer":0,
			"byteLength":1080,
			"byteOffset":1620,
			"target":34962
		},
		{
			"buffer":0,
			"byteLength":1620,
			"byteOffset":2700,
			"target":34962
		},
		{
			"buffer":0,
			"byteLength":288,
			"byteOffset":4320,
			"target":34963
		},
		{
			"buffer":0,
			"byteLength":144,
			"byteOffset":4608,
			"target":34962
		},
		{
			"buffer":0,
			"byteLength":96,
			"byteOffset":4752,
			"target":34962
		},
		{
			"buffer":0,
			"byteLength":144,
			"byteOffset":4848,
			"target":34962
		},
		{
			"buffer":0,
			"byteLength":72,
			"byteOffset":4992,
			"target":34963
		},
		{
			"buffer":0,
			"byteLength":1440,
			"byteOffset":5064,
			"target":34962
		},
		{
			"buffer":0,
			"byteLength":960,
			"byteOffset":6504,
			"target":34962
		},
		{
			"buffer":0,
			"byteLength":1440,
			"byteOffset":7464,
			"target":34962
		},
		{
			"buffer":0,
			"byteLength":432,
			"byteOffset":8904,
			"target":34963
		},
		{
			"buffer":0,
			"byteLength":1620,
			"byteOffset":9336,
			"target":34962
		},
		{
			"buffer":0,
			"byteLength":1080,
			"byteOffset":10956,
			"target":34962
		},
		{
			"buffer":0,
			"byteLength":1620,
			"byteOffset":12036,
			"target":34962
		},
		{
			"buffer":0,
			"byteLength":144,
			"byteOffset":13656,
			"target":34962
		},
		{
			"buffer":0,
			"byteLength":96,
			"byteOffset":13800,
			"target":34962
		},
		{
			"buffer":0,
			"byteLength":144,
			"byteOffset":13896,
			"target":34962
		},
		{
			"buffer":0,
			"byteLength":1440,
			"byteOffset":14040,
			"target":34962
		},
		{
			"buffer":0,
			"byteLength":960,
			"byteOffset":15480,
			"target":34962
		},
		{
			"buffer":0,
			"byteLength":1440,
			"byteOffset":16440,
			"target":34962
		},
		{
			"buffer":0,
			"byteLength":1620,
			"byteOffset":17880,
			"target":34962
		},
		{
			"buffer":0,
			"byteLength":1080,
			"byteOffset":19500,
			"target":34962
		},
		{
			"buffer":0,
			"byteLength":1620,
			"byteOffset":20580,
			"target":34962
		},
		{
			"buffer":0,
			"byteLength":144,
			"byteOffset":22200,
			"target":34962
		},
		{
			"buffer":0,
			"byteLength":96,
			"byteOffset":22344,
			"target":34962
		},
		{
			"buffer":0,
			"byteLength":144,
			"byteOffset":22440,
			"target":34962
		},
		{
			"buffer":0,
			"byteLength":1440,
			"byteOffset":22584,
			"target":34962
		},
		{
			"buffer":0,
			"byteLength":960,
			"byteOffset":24024,
			"target":34962
		},
		{
			"buffer":0,
			"byteLength":1440,
			"byteOffset":24984,
			"target":34962
		},
		{
			"buffer":0,
			"byteLength":52,
			"byteOffset":26424
		},
		{
			"buffer":0,
			"byteLength":156,
			"byteOffset":26476
		}
	],
	"samplers":[
		{
			"magFilter":9729,
			"minFilter":9987
		}
	],
	"buffers":[
		{
			"byteLength":26632,
			"uri":"leadin.bin"
		}
	]
}
